#define x_width 48
#define x_height 57
static char x_bits[] = {
0x00, 0x00, 0x00, 0x00, 0x00, 0x00, 
0x00, 0x00, 0x80, 0x07, 0x00, 0x00, 
0x00, 0x00, 0x70, 0xff, 0x01, 0x00, 
0x00, 0x00, 0xbc, 0xdf, 0x07, 0x00, 
0x00, 0x00, 0x7a, 0x80, 0x1f, 0x00, 
0x00, 0x00, 0x1f, 0x00, 0x1e, 0x00, 
0x00, 0x00, 0x0f, 0x00, 0x3c, 0x00, 
0x00, 0xc0, 0x02, 0x00, 0x18, 0x00, 
0x00, 0xc0, 0x01, 0x00, 0x78, 0x00, 
0x00, 0xa0, 0x00, 0x00, 0x30, 0x00, 
0x00, 0x60, 0x00, 0x1c, 0x70, 0x00, 
0x00, 0x60, 0x00, 0x3a, 0x30, 0x00, 
0x00, 0x30, 0x80, 0x01, 0x30, 0x00, 
0x00, 0x38, 0x80, 0x00, 0x60, 0x00, 
0x00, 0x18, 0x00, 0x00, 0x60, 0x00, 
0x00, 0x08, 0x40, 0x00, 0x30, 0x00, 
0x00, 0x18, 0x40, 0x00, 0x20, 0x00, 
0x00, 0x18, 0x40, 0x00, 0x30, 0x00, 
0x00, 0x10, 0x00, 0x00, 0x20, 0x00, 
0x00, 0x10, 0x80, 0x10, 0x10, 0x00, 
0x00, 0x18, 0x80, 0x01, 0x0c, 0x00, 
0x00, 0x10, 0xc0, 0x03, 0x06, 0x00, 
0x00, 0x30, 0x00, 0xcf, 0x03, 0x00, 
0x00, 0x30, 0x00, 0x7e, 0x01, 0x00, 
0x00, 0xe0, 0x00, 0x00, 0x00, 0x00, 
0x00, 0xe0, 0x00, 0x00, 0x00, 0x00, 
0x00, 0xe0, 0x00, 0x00, 0x00, 0x00, 
0x00, 0xc0, 0x00, 0x00, 0x00, 0x00, 
0x00, 0xc0, 0x01, 0x00, 0x00, 0x00, 
0x00, 0x00, 0x03, 0x00, 0x00, 0x00, 
0x00, 0x00, 0x03, 0x00, 0x00, 0x00, 
0x00, 0x00, 0x02, 0x00, 0x00, 0x00, 
0x00, 0x00, 0x1c, 0x00, 0x00, 0x00, 
0x00, 0x00, 0x1c, 0x00, 0x00, 0x00, 
0x00, 0x00, 0x60, 0x00, 0x00, 0x00, 
0x00, 0x00, 0xc0, 0x00, 0x00, 0x00, 
0x00, 0x00, 0x00, 0x03, 0x00, 0x00, 
0x00, 0x00, 0x00, 0x00, 0x00, 0x00, 
0x00, 0x00, 0x00, 0x00, 0x00, 0x00, 
0x00, 0x04, 0x10, 0x30, 0x00, 0x00, 
0x00, 0x0e, 0x38, 0x38, 0x00, 0x00, 
0x00, 0x06, 0x18, 0x10, 0x00, 0x00, 
0x00, 0x06, 0x18, 0x00, 0x00, 0x00, 
0xc0, 0xe7, 0xbb, 0xb3, 0x9f, 0x3d, 
0x60, 0x66, 0xfe, 0xb3, 0xb1, 0x3b, 
0x60, 0x34, 0x36, 0x37, 0xb0, 0x31, 
0x30, 0x36, 0x36, 0x32, 0x30, 0x31, 
0x30, 0xf6, 0x17, 0xb6, 0xb7, 0x31, 
0x30, 0x34, 0x18, 0xb2, 0x31, 0x31, 
0x70, 0x66, 0x10, 0xb3, 0xb1, 0x31, 
0x60, 0x66, 0x18, 0xb3, 0xb9, 0x31, 
0xe0, 0xef, 0xb5, 0xb3, 0xbf, 0x31, 
0x80, 0x04, 0xe2, 0x10, 0x20, 0x11, 
0x00, 0x00, 0x00, 0x00, 0x00, 0x00, 
0x00, 0x00, 0x00, 0x00, 0x00, 0x00, 
0x00, 0x00, 0x00, 0x00, 0x00, 0x00, 
0x00, 0x00, 0x00, 0x00, 0x00, 0x00, 
}; 
