#define x_width 48
#define x_height 43
static char x_bits[] = {
0x00, 0x00, 0x80, 0x00, 0x00, 0x00, 
0x00, 0x00, 0x00, 0x00, 0x00, 0x00, 
0x00, 0x00, 0x00, 0x00, 0x00, 0x00, 
0x00, 0x00, 0x00, 0x20, 0x00, 0x00, 
0x00, 0x00, 0x00, 0xa0, 0x00, 0x00, 
0x00, 0x00, 0x00, 0x00, 0x02, 0x00, 
0x00, 0x00, 0x40, 0x03, 0x04, 0x00, 
0x00, 0x20, 0x80, 0x42, 0x0a, 0x00, 
0x00, 0x10, 0x00, 0x03, 0x00, 0x00, 
0x00, 0x60, 0x00, 0x00, 0x08, 0x00, 
0x00, 0xc0, 0x01, 0x00, 0x24, 0x00, 
0x00, 0xc0, 0x05, 0x80, 0x24, 0x00, 
0x00, 0x00, 0x03, 0x00, 0x60, 0x00, 
0x00, 0x00, 0x02, 0x00, 0x68, 0x00, 
0x00, 0x00, 0x00, 0x00, 0x10, 0x00, 
0x00, 0x00, 0x00, 0x00, 0x0e, 0x00, 
0x00, 0x00, 0x00, 0x00, 0x1d, 0x00, 
0x00, 0x00, 0x00, 0x00, 0x0d, 0x00, 
0x00, 0x00, 0x00, 0x40, 0x03, 0x00, 
0x00, 0x00, 0x00, 0xa0, 0x02, 0x00, 
0x00, 0x00, 0x00, 0x78, 0x00, 0x00, 
0x00, 0x00, 0x00, 0x54, 0x00, 0x00, 
0x00, 0x10, 0xc0, 0x1a, 0x00, 0x00, 
0x00, 0x70, 0x70, 0x1d, 0x00, 0x00, 
0x00, 0x40, 0xf0, 0x01, 0x00, 0x00, 
0x00, 0x80, 0x73, 0x01, 0x00, 0x00, 
0x00, 0x80, 0x3e, 0x00, 0x00, 0x00, 
0x00, 0x00, 0x0a, 0x00, 0x00, 0x00, 
0x00, 0x00, 0x00, 0x00, 0x00, 0x00, 
0x00, 0x00, 0x04, 0x80, 0x00, 0x00, 
0x00, 0x00, 0x04, 0x80, 0x00, 0x00, 
0xe0, 0xcc, 0x46, 0x8e, 0xba, 0x21, 
0xa0, 0x00, 0x54, 0xcf, 0xaa, 0x34, 
0xa0, 0x00, 0x44, 0x8f, 0xaa, 0x30, 
0xa0, 0x0c, 0x54, 0x87, 0xaa, 0x35, 
0xa0, 0x04, 0x54, 0x8e, 0xaa, 0x34, 
0xa0, 0x08, 0x54, 0x8e, 0xea, 0x24, 
0xe0, 0x88, 0x44, 0x87, 0xaa, 0x25, 
0x80, 0x00, 0x00, 0x00, 0x00, 0x00, 
0xa0, 0x00, 0x00, 0x00, 0x00, 0x00, 
0xe0, 0x00, 0x00, 0x00, 0x00, 0x00, 
0x00, 0x00, 0x00, 0x00, 0x00, 0x00, 
0x00, 0x00, 0x00, 0x00, 0x00, 0x00, 
}; 
