#define x_width 48
#define x_height 41
static char x_bits[] = {
0x00, 0x00, 0xc0, 0x02, 0x00, 0x00, 
0x00, 0x00, 0xe0, 0x06, 0x00, 0x00, 
0x00, 0x00, 0x50, 0x0b, 0x00, 0x00, 
0x00, 0x00, 0xd0, 0x0e, 0x00, 0x00, 
0x00, 0x00, 0x30, 0x0b, 0x00, 0x00, 
0x00, 0x20, 0x90, 0x14, 0x18, 0x00, 
0x00, 0x50, 0x10, 0x0c, 0x14, 0x00, 
0x00, 0xe0, 0x10, 0x18, 0x0f, 0x00, 
0x00, 0xc0, 0x00, 0x58, 0x05, 0x00, 
0x00, 0xc0, 0x06, 0xd0, 0x07, 0x00, 
0x00, 0x3c, 0x0b, 0xb0, 0x1a, 0x00, 
0x00, 0xe8, 0x0a, 0xa0, 0x59, 0x00, 
0x00, 0xa0, 0x04, 0xc0, 0x0e, 0x00, 
0x00, 0xc0, 0x0a, 0x20, 0x09, 0x00, 
0x00, 0x00, 0x05, 0xa0, 0x01, 0x00, 
0x00, 0x00, 0x04, 0xe0, 0x00, 0x00, 
0x00, 0x00, 0x02, 0x40, 0x00, 0x00, 
0x00, 0x00, 0x02, 0x40, 0x00, 0x00, 
0x00, 0x00, 0x06, 0x60, 0x00, 0x00, 
0x00, 0x00, 0x04, 0x50, 0x00, 0x00, 
0x00, 0x00, 0x38, 0x55, 0x00, 0x00, 
0x00, 0x00, 0xe4, 0x2a, 0x00, 0x00, 
0x00, 0x00, 0xd5, 0xf6, 0x01, 0x00, 
0x00, 0x00, 0x5a, 0xb8, 0x00, 0x00, 
0x00, 0x00, 0x24, 0x54, 0x00, 0x00, 
0x00, 0x00, 0x00, 0x00, 0x00, 0x00, 
0xc0, 0x46, 0x3c, 0x9e, 0x23, 0x31, 
0xc8, 0x46, 0x7e, 0xbe, 0x27, 0x31, 
0x68, 0x4e, 0x76, 0xb6, 0x6d, 0x3b, 
0x3c, 0x4e, 0x83, 0xf6, 0x6d, 0x0e, 
0x38, 0x5a, 0x81, 0xbe, 0x2f, 0x0e, 
0x38, 0x76, 0x83, 0x9d, 0x67, 0x0e, 
0x6c, 0x76, 0xd6, 0x86, 0x20, 0x1b, 
0x48, 0x66, 0x7e, 0x82, 0x61, 0x33, 
0xc8, 0x62, 0x3c, 0x04, 0x20, 0x31, 
0x00, 0x00, 0x00, 0x00, 0x00, 0x00, 
0x00, 0x00, 0x00, 0x00, 0x00, 0x00, 
0x00, 0x00, 0x00, 0x00, 0x00, 0x00, 
0x00, 0x00, 0x00, 0x00, 0x00, 0x00, 
0x00, 0x00, 0x00, 0x00, 0x00, 0x00, 
0x00, 0x00, 0x00, 0x00, 0x00, 0x00, 
}; 
