#define x_width 48
#define x_height 31
static char x_bits[] = {
0x00, 0x00, 0x00, 0x04, 0x00, 0x00, 
0x00, 0x00, 0x00, 0x00, 0x00, 0x00, 
0x00, 0x00, 0x00, 0x06, 0x00, 0x00, 
0x00, 0x10, 0x00, 0x00, 0x00, 0x00, 
0x00, 0x08, 0x00, 0x09, 0x00, 0x00, 
0x00, 0x00, 0x00, 0x06, 0x00, 0x00, 
0x00, 0x00, 0xa8, 0x20, 0x00, 0x00, 
0x00, 0x04, 0xa8, 0x22, 0x04, 0x00, 
0x00, 0x04, 0x00, 0x98, 0x08, 0x00, 
0x00, 0x06, 0xc0, 0xc0, 0x00, 0x00, 
0x00, 0x04, 0x50, 0x41, 0x00, 0x00, 
0x00, 0x06, 0x80, 0x10, 0x00, 0x00, 
0x00, 0x06, 0x84, 0x04, 0x00, 0x00, 
0x00, 0x04, 0x50, 0x11, 0x00, 0x00, 
0x00, 0x0c, 0xa8, 0x08, 0x00, 0x00, 
0x00, 0x18, 0x34, 0x18, 0x00, 0x00, 
0x00, 0x78, 0x1a, 0x00, 0x00, 0x00, 
0x00, 0xf0, 0x17, 0x10, 0x00, 0x00, 
0x00, 0x80, 0x00, 0x00, 0x00, 0x00, 
0x00, 0x00, 0x00, 0x00, 0x00, 0x00, 
0x00, 0x00, 0x00, 0x0c, 0x00, 0x00, 
0x18, 0x03, 0x00, 0x0c, 0x00, 0x00, 
0x10, 0x43, 0x08, 0x46, 0x08, 0x02, 
0xb0, 0xc3, 0xa2, 0x6c, 0x4b, 0x18, 
0xa8, 0xf7, 0xa2, 0x3d, 0x10, 0x1e, 
0x60, 0x9b, 0xa2, 0x3d, 0x30, 0x18, 
0x48, 0xfb, 0xa2, 0x6d, 0x33, 0x1e, 
0x48, 0x72, 0x00, 0x2b, 0x30, 0x12, 
0x00, 0x00, 0x00, 0x00, 0x00, 0x00, 
0x00, 0x00, 0x00, 0x00, 0x00, 0x00, 
0x00, 0x00, 0x00, 0x00, 0x00, 0x00, 
}; 
