#define x_width 48
#define x_height 50
static char x_bits[] = {
0x00, 0x00, 0x00, 0x00, 0x00, 0x00, 
0x00, 0x00, 0x00, 0x00, 0x00, 0x00, 
0x00, 0x00, 0x00, 0x00, 0x00, 0x00, 
0x00, 0x00, 0x00, 0x00, 0x00, 0x00, 
0x00, 0x00, 0xe0, 0x0f, 0x00, 0x00, 
0x00, 0x00, 0xf8, 0x3e, 0x00, 0x00, 
0x00, 0x00, 0x06, 0xe0, 0x00, 0x00, 
0x00, 0x80, 0x01, 0x00, 0x02, 0x00, 
0x00, 0xc0, 0x00, 0x00, 0x05, 0x00, 
0x00, 0x60, 0x00, 0xe8, 0x0e, 0x00, 
0x00, 0x30, 0xc0, 0xaa, 0x16, 0x00, 
0x00, 0x10, 0x20, 0x69, 0x1f, 0x00, 
0x00, 0x00, 0xe8, 0xe9, 0x36, 0x00, 
0x00, 0x08, 0xd0, 0xae, 0x26, 0x00, 
0x00, 0x08, 0xb2, 0x6a, 0x75, 0x00, 
0x00, 0x0c, 0x2d, 0x69, 0x77, 0x00, 
0x00, 0x04, 0xd5, 0xf6, 0x56, 0x00, 
0x00, 0x04, 0x2d, 0x69, 0xf5, 0x00, 
0x00, 0x04, 0xd3, 0x96, 0x76, 0x00, 
0x00, 0x04, 0x5d, 0xf5, 0xd6, 0x00, 
0x00, 0x4c, 0xd5, 0x96, 0x4a, 0x00, 
0x00, 0xa4, 0x52, 0x55, 0x75, 0x00, 
0x00, 0xcc, 0x32, 0x69, 0x49, 0x00, 
0x00, 0xd8, 0x2e, 0xa9, 0x76, 0x00, 
0x00, 0x28, 0xd5, 0xee, 0x2a, 0x00, 
0x00, 0xd0, 0xdb, 0xaa, 0x16, 0x00, 
0x00, 0xb0, 0x38, 0xf9, 0x1a, 0x00, 
0x00, 0xf0, 0xf8, 0x76, 0x19, 0x00, 
0x00, 0x60, 0xf8, 0xce, 0x09, 0x00, 
0x00, 0x20, 0xf8, 0xc7, 0x07, 0x00, 
0x00, 0x30, 0xf0, 0xc1, 0x03, 0x00, 
0x00, 0x00, 0xf4, 0x83, 0x03, 0x00, 
0x00, 0xcc, 0xdd, 0x9f, 0x0f, 0x00, 
0x00, 0x26, 0xf5, 0x6f, 0x1f, 0x00, 
0x00, 0xd5, 0xd2, 0xff, 0x1f, 0x00, 
0x00, 0x00, 0x00, 0x00, 0x00, 0x00, 
0x00, 0x00, 0x00, 0x00, 0x00, 0x00, 
0x30, 0x70, 0x7c, 0x7c, 0x8c, 0x0f, 
0x70, 0x50, 0x04, 0xc4, 0x88, 0x10, 
0xf0, 0x50, 0x04, 0xc4, 0x8c, 0x00, 
0x50, 0x60, 0x04, 0x84, 0xc5, 0x00, 
0x90, 0x28, 0x04, 0x84, 0x8c, 0x01, 
0x90, 0x28, 0x44, 0x3c, 0x0c, 0x0e, 
0x10, 0x64, 0x04, 0x04, 0x0c, 0x1c, 
0x30, 0x25, 0x04, 0x04, 0x08, 0x10, 
0x10, 0x65, 0x04, 0x04, 0x0c, 0x10, 
0x10, 0x63, 0x04, 0x04, 0x48, 0x08, 
0x10, 0x20, 0xfc, 0x04, 0xcc, 0x0f, 
0x00, 0x00, 0x00, 0x00, 0x00, 0x00, 
0x00, 0x00, 0x00, 0x00, 0x00, 0x00, 
}; 
