#define x_width 48
#define x_height 41
static char x_bits[] = {
0x00, 0x00, 0x00, 0x00, 0x00, 0x00, 
0x00, 0x00, 0x00, 0x00, 0x00, 0x00, 
0x00, 0xc0, 0x00, 0x00, 0x0f, 0x00, 
0x00, 0xc0, 0x00, 0x00, 0x0f, 0x00, 
0x00, 0xc0, 0x03, 0x00, 0x07, 0x00, 
0x00, 0xc0, 0x07, 0x00, 0x0f, 0x00, 
0x00, 0xc0, 0x0b, 0x00, 0x0f, 0x00, 
0x00, 0xc0, 0x0f, 0x00, 0x0f, 0x00, 
0x00, 0xc0, 0x35, 0x00, 0x06, 0x00, 
0x00, 0xc0, 0x7f, 0x00, 0x0f, 0x00, 
0x00, 0xc0, 0xfb, 0x01, 0x0e, 0x00, 
0x00, 0xc0, 0xee, 0x01, 0x0f, 0x00, 
0x00, 0xc0, 0xfb, 0x07, 0x0d, 0x00, 
0x00, 0xc0, 0xf3, 0x0e, 0x0f, 0x00, 
0x00, 0xc0, 0x42, 0x1f, 0x0e, 0x00, 
0x00, 0xc0, 0xc7, 0x1f, 0x0f, 0x00, 
0x00, 0xc0, 0x03, 0x7f, 0x0d, 0x00, 
0x00, 0xc0, 0x05, 0xfb, 0x0f, 0x00, 
0x00, 0xc0, 0x07, 0xec, 0x0a, 0x00, 
0x00, 0xc0, 0x03, 0xf8, 0x0f, 0x00, 
0x00, 0xc0, 0x03, 0xf0, 0x05, 0x00, 
0x00, 0xc0, 0x03, 0xe0, 0x0f, 0x00, 
0x00, 0xc0, 0x07, 0xc0, 0x0f, 0x00, 
0x00, 0xc0, 0x02, 0x80, 0x0f, 0x00, 
0x00, 0xc0, 0x03, 0x00, 0x0d, 0x00, 
0x00, 0xc0, 0x03, 0x00, 0x0e, 0x00, 
0x00, 0xc0, 0x07, 0x00, 0x08, 0x00, 
0x00, 0x00, 0x00, 0x00, 0x08, 0x00, 
0x00, 0x00, 0x00, 0x00, 0x00, 0x00, 
0x00, 0x00, 0x00, 0x00, 0x00, 0x00, 
0x00, 0x00, 0x00, 0x00, 0x00, 0x13, 
0x20, 0x10, 0x00, 0x00, 0x00, 0x1b, 
0xe0, 0x10, 0x1f, 0x31, 0x1f, 0x13, 
0xe0, 0x10, 0x37, 0x33, 0x3b, 0x1b, 
0x60, 0x93, 0x30, 0x9b, 0x3f, 0x13, 
0x40, 0x9b, 0x21, 0x8a, 0x3f, 0x1b, 
0x40, 0x0c, 0x31, 0x84, 0x10, 0x13, 
0x60, 0x18, 0x33, 0x0c, 0x33, 0x1b, 
0x60, 0x10, 0x1e, 0x04, 0x0e, 0x01, 
0x00, 0x00, 0x00, 0x00, 0x00, 0x00, 
0x00, 0x00, 0x00, 0x00, 0x00, 0x00, 
}; 
