#define x_width 48
#define x_height 53
static char x_bits[] = {
0x00, 0x00, 0x00, 0x00, 0x00, 0x00, 
0x00, 0x00, 0x00, 0x00, 0x00, 0x00, 
0x00, 0x00, 0x00, 0x00, 0x00, 0x00, 
0x00, 0x00, 0x00, 0x00, 0x00, 0x00, 
0x00, 0x00, 0x40, 0x75, 0x00, 0x00, 
0x00, 0x00, 0x04, 0x00, 0x0a, 0x00, 
0x00, 0x00, 0x02, 0x04, 0x00, 0x00, 
0x00, 0x00, 0x11, 0x10, 0x28, 0x00, 
0x00, 0x40, 0x40, 0x42, 0x22, 0x00, 
0x00, 0x20, 0x10, 0x00, 0x40, 0x00, 
0x00, 0x00, 0x00, 0xa8, 0x94, 0x00, 
0x00, 0x00, 0x00, 0x80, 0x42, 0x01, 
0x00, 0x00, 0x00, 0x00, 0x20, 0x03, 
0x00, 0x08, 0x00, 0x00, 0x08, 0x02, 
0x00, 0x00, 0x00, 0x00, 0x50, 0x03, 
0x00, 0x04, 0x00, 0x00, 0x00, 0x06, 
0x00, 0x00, 0x00, 0x00, 0x22, 0x07, 
0x00, 0x00, 0x00, 0x90, 0x00, 0x07, 
0x00, 0x00, 0x00, 0x00, 0xa0, 0x05, 
0x00, 0x00, 0x00, 0x00, 0x44, 0x0f, 
0x00, 0x00, 0x00, 0x00, 0x40, 0x09, 
0x00, 0x00, 0x00, 0x20, 0xc1, 0x06, 
0x00, 0x02, 0x00, 0x01, 0x80, 0x09, 
0x00, 0x00, 0x00, 0x08, 0x50, 0x01, 
0x00, 0x00, 0x00, 0xa0, 0x86, 0x06, 
0x00, 0x02, 0x00, 0x00, 0xc0, 0x06, 
0x00, 0x00, 0x00, 0x00, 0x20, 0x01, 
0x00, 0x04, 0x00, 0x00, 0xa0, 0x00, 
0x00, 0x00, 0x00, 0x00, 0x54, 0x01, 
0x00, 0x00, 0x28, 0x50, 0x42, 0x01, 
0x00, 0x00, 0x44, 0x0a, 0x99, 0x00, 
0x00, 0x00, 0x10, 0x21, 0x20, 0x01, 
0x00, 0x00, 0x44, 0x44, 0x45, 0x00, 
0x00, 0x00, 0x10, 0x10, 0x20, 0x00, 
0x00, 0x80, 0x04, 0x02, 0x22, 0x00, 
0x00, 0x00, 0x10, 0x84, 0x04, 0x00, 
0x00, 0x00, 0x08, 0x00, 0x03, 0x00, 
0x00, 0x00, 0xa0, 0x25, 0x00, 0x00, 
0x00, 0x00, 0x00, 0x00, 0x00, 0x00, 
0x00, 0x00, 0x00, 0x00, 0x00, 0x00, 
0x00, 0x00, 0x00, 0x00, 0x00, 0x00, 
0x00, 0xf8, 0x18, 0xf3, 0xf3, 0x03, 
0x00, 0x08, 0x18, 0x13, 0x30, 0x00, 
0x00, 0x08, 0x18, 0x33, 0x30, 0x00, 
0x00, 0xf8, 0x1b, 0xf3, 0xf7, 0x03, 
0x00, 0xd0, 0x0b, 0x43, 0x77, 0x03, 
0x00, 0x00, 0x1b, 0x03, 0x16, 0x00, 
0x00, 0xf8, 0xf9, 0xf3, 0xf7, 0x07, 
0x00, 0xb8, 0xe1, 0x51, 0xa1, 0x01, 
0x00, 0x00, 0x00, 0x00, 0x00, 0x00, 
0x00, 0x00, 0x00, 0x00, 0x00, 0x00, 
0x00, 0x00, 0x00, 0x00, 0x00, 0x00, 
0x00, 0x00, 0x00, 0x00, 0x00, 0x00, 
}; 
