#define x_width 48
#define x_height 43
static char x_bits[] = {
0x00, 0x00, 0x00, 0x00, 0x00, 0x00, 
0x00, 0x00, 0x00, 0x00, 0x1f, 0x00, 
0x00, 0x00, 0x00, 0x00, 0x1d, 0x00, 
0x00, 0x00, 0x00, 0x7b, 0x1f, 0x00, 
0x00, 0x00, 0x00, 0x4f, 0x1f, 0x00, 
0x00, 0x00, 0x00, 0x4e, 0x0e, 0x00, 
0x00, 0x00, 0x20, 0x7c, 0x00, 0x00, 
0x00, 0x00, 0x60, 0xc4, 0x1d, 0x00, 
0x00, 0x00, 0x98, 0x00, 0x32, 0x00, 
0x00, 0x00, 0x64, 0x00, 0x6c, 0x00, 
0x00, 0x00, 0x24, 0x00, 0x5c, 0x00, 
0x00, 0x00, 0x24, 0x00, 0x28, 0x00, 
0x00, 0xc0, 0x19, 0x00, 0x30, 0x00, 
0x00, 0x60, 0x03, 0x00, 0x00, 0x00, 
0x00, 0xf0, 0x12, 0x00, 0x00, 0x00, 
0x00, 0xe0, 0x19, 0x00, 0x78, 0x00, 
0x00, 0x80, 0x21, 0x00, 0x78, 0x00, 
0x00, 0x00, 0x24, 0x00, 0x7c, 0x00, 
0x00, 0x00, 0x64, 0x00, 0x7c, 0x00, 
0x00, 0x00, 0x98, 0x00, 0x3e, 0x00, 
0x00, 0x00, 0x18, 0x80, 0x3f, 0x00, 
0x00, 0x00, 0x10, 0xfe, 0x1e, 0x00, 
0x00, 0x00, 0x10, 0xfe, 0x11, 0x00, 
0x00, 0x00, 0x00, 0x7f, 0x02, 0x00, 
0x00, 0x00, 0x00, 0x5d, 0x0c, 0x00, 
0x00, 0x00, 0x00, 0x3c, 0x13, 0x00, 
0x00, 0x00, 0x00, 0x00, 0x13, 0x00, 
0x00, 0x00, 0x00, 0x00, 0x0c, 0x00, 
0x00, 0x00, 0x00, 0x00, 0x04, 0x00, 
0x00, 0x40, 0x00, 0x00, 0x10, 0x00, 
0x00, 0xc0, 0x00, 0x00, 0x18, 0x00, 
0x00, 0xc0, 0x00, 0x00, 0x18, 0x00, 
0x80, 0xc8, 0x23, 0xe2, 0x38, 0x11, 
0x80, 0xc8, 0x24, 0xb2, 0x19, 0x11, 
0x80, 0xcc, 0x6c, 0x92, 0x19, 0x11, 
0x80, 0xc8, 0x6c, 0x92, 0x19, 0x11, 
0x80, 0xcd, 0x2c, 0x1b, 0x19, 0x1b, 
0x00, 0xcf, 0xc3, 0x11, 0x79, 0x1e, 
0x00, 0x02, 0x82, 0x10, 0x31, 0x04, 
0x00, 0x00, 0x00, 0x00, 0x00, 0x00, 
0x00, 0x00, 0x00, 0x00, 0x00, 0x00, 
0x00, 0x00, 0x00, 0x00, 0x00, 0x00, 
0x00, 0x00, 0x00, 0x00, 0x00, 0x00, 
}; 
