#define x_width 48
#define x_height 45
static char x_bits[] = {
0x00, 0x00, 0x00, 0x00, 0x00, 0x00, 
0x00, 0x00, 0x00, 0x00, 0x00, 0x00, 
0x00, 0x00, 0x00, 0x00, 0x00, 0x00, 
0x00, 0x00, 0x00, 0x00, 0x00, 0x00, 
0x00, 0x80, 0x00, 0x00, 0x00, 0x00, 
0x00, 0x00, 0x00, 0x00, 0x00, 0x00, 
0x00, 0x00, 0x00, 0x00, 0x00, 0x00, 
0x00, 0x00, 0x00, 0x00, 0x00, 0x00, 
0x00, 0x00, 0x01, 0x00, 0x00, 0x00, 
0x00, 0x00, 0x00, 0x08, 0x20, 0x00, 
0x00, 0x00, 0x00, 0x00, 0x02, 0x00, 
0x00, 0x00, 0x00, 0x00, 0x00, 0x00, 
0x00, 0x00, 0x84, 0x61, 0x00, 0x00, 
0x00, 0x00, 0x00, 0x00, 0x00, 0x00, 
0x00, 0x00, 0x00, 0x0c, 0x00, 0x00, 
0x00, 0x00, 0x71, 0x04, 0x01, 0x00, 
0x00, 0x00, 0x00, 0x08, 0x00, 0x00, 
0x00, 0x00, 0x00, 0x03, 0x00, 0x00, 
0x00, 0x00, 0x80, 0x62, 0x00, 0x00, 
0x00, 0x00, 0x00, 0x0c, 0x00, 0x00, 
0x00, 0x00, 0x60, 0x14, 0x00, 0x00, 
0x00, 0x00, 0x20, 0x08, 0x00, 0x00, 
0x00, 0x00, 0x20, 0x00, 0x00, 0x00, 
0x00, 0x00, 0x84, 0x60, 0x00, 0x00, 
0x00, 0x00, 0x04, 0x20, 0x00, 0x00, 
0x00, 0x80, 0x00, 0x00, 0x00, 0x00, 
0x00, 0x00, 0x00, 0x08, 0x00, 0x00, 
0x00, 0x00, 0x00, 0x00, 0x00, 0x00, 
0x00, 0x00, 0x00, 0x00, 0x00, 0x00, 
0x00, 0x00, 0x00, 0x00, 0x00, 0x00, 
0x00, 0x00, 0x00, 0x00, 0x00, 0x00, 
0x00, 0x00, 0x00, 0x00, 0x01, 0x00, 
0x00, 0x00, 0x00, 0x10, 0x00, 0x00, 
0x00, 0x00, 0x00, 0x00, 0x00, 0x00, 
0x00, 0x00, 0x00, 0x00, 0x10, 0x04, 
0x00, 0x00, 0x00, 0x00, 0x48, 0x00, 
0x80, 0x00, 0x00, 0x00, 0x84, 0x00, 
0x00, 0x40, 0x80, 0x10, 0x84, 0x0c, 
0x00, 0x41, 0x00, 0x80, 0x88, 0x00, 
0x00, 0x00, 0x00, 0x01, 0x48, 0x00, 
0x00, 0x00, 0x00, 0x00, 0x00, 0x00, 
0x00, 0x00, 0x00, 0x00, 0x00, 0x00, 
0x00, 0x00, 0x00, 0x00, 0x00, 0x00, 
0x00, 0x00, 0x00, 0x00, 0x00, 0x00, 
0x00, 0x00, 0x00, 0x00, 0x00, 0x00, 
}; 
